<?xml version="1.0" encoding="UTF-8" standalone="no"?>
<!-- Created with Inkscape (http://www.inkscape.org/) -->

<svg
   xmlns:dc="http://purl.org/dc/elements/1.1/"
   xmlns:cc="http://creativecommons.org/ns#"
   xmlns:rdf="http://www.w3.org/1999/02/22-rdf-syntax-ns#"
   xmlns:svg="http://www.w3.org/2000/svg"
   xmlns="http://www.w3.org/2000/svg"
   xmlns:sodipodi="http://sodipodi.sourceforge.net/DTD/sodipodi-0.dtd"
   xmlns:inkscape="http://www.inkscape.org/namespaces/inkscape"
   xml:space="preserve"
   width="512"
   height="512"
   version="1.1"
   style="clip-rule:evenodd;fill-rule:evenodd;image-rendering:optimizeQuality;shape-rendering:geometricPrecision;text-rendering:geometricPrecision"
   viewBox="0 0 5333.4227 5333.091"
   id="svg152"
   sodipodi:docname="01 - KLiM logo-square.svg"
   inkscape:version="0.92.2 5c3e80d, 2017-08-06"><metadata
     id="metadata156"><rdf:RDF><cc:Work
         rdf:about=""><dc:format>image/svg+xml</dc:format><dc:type
           rdf:resource="http://purl.org/dc/dcmitype/StillImage" /><dc:title></dc:title></cc:Work></rdf:RDF></metadata><sodipodi:namedview
     pagecolor="#ffffff"
     bordercolor="#666666"
     borderopacity="1"
     objecttolerance="10"
     gridtolerance="10"
     guidetolerance="10"
     inkscape:pageopacity="0"
     inkscape:pageshadow="2"
     inkscape:window-width="1366"
     inkscape:window-height="721"
     id="namedview154"
     showgrid="false"
     units="px"
     inkscape:zoom="0.4270635"
     inkscape:cx="-27.502747"
     inkscape:cy="-110.09736"
     inkscape:window-x="0"
     inkscape:window-y="0"
     inkscape:window-maximized="1"
     inkscape:current-layer="svg152" /><defs
     id="defs4"><style
       type="text/css"
       id="style2"><![CDATA[
    .fil0 {fill:#FEFEFE}
    .fil3 {fill:#373435}
    .fil4 {fill:#1E87F7}
    .fil5 {fill:#F7941E}
    .fil1 {fill:#FEFEFE;fill-rule:nonzero}
    .fil2 {fill:#373435;fill-rule:nonzero}
   ]]></style></defs><g
     id="g3933"
     transform="matrix(0.74047334,0,0,0.74047334,10.422416,22.604247)"><g
       transform="translate(0,1808.2034)"
       id="Layer_x0020_1"><metadata
         id="CorelCorpID_0Corel-Layer" /><g
         id="_717241536"><g
           id="g9"><path
             style="fill:#fefefe"
             inkscape:connector-curvature="0"
             id="path7"
             d="m 2094,1700 h 220 c 57,0 100,42 100,100 v 217 h 227 c 6,0 12,0 17,2 6,-2 12,-2 18,-2 h 271 c 58,0 100,42 100,100 v 207 c 57,-5 126,-6 183,-7 3,-17 10,-34 24,-49 15,-17 32,-26 50,-30 2,-20 9,-39 26,-57 12,-13 25,-21 39,-26 6,-20 19,-36 36,-47 -13,-7 -26,-14 -39,-21 -11,-5 -42,-21 -54,-22 -43,0 -79,-29 -88,-71 -9,-42 3,-78 11,-115 l 31,-166 c 5,-29 10,-59 16,-87 8,-34 33,-59 67,-67 29,-7 59,-10 89,-13 0,0 1,0 2,0 l 2,-32 c 0,-3 0,-5 1,-9 1,-11 1,-26 0,-38 0,-21 0,-41 2,-62 l 5,-98 c 0,-17 0,-34 0,-51 0,-18 3,-35 3,-52 0,-1 0,-2 0,-3 l 19,-532 c 0,-3 0,-7 1,-10 1,-11 1,-25 0,-36 0,-23 0,-46 3,-69 13,-83 5,-129 52,-209 14,-24 27,-47 49,-64 2,-1 4,-2 5,-3 2,-95 30,-208 111,-263 27,-18 60,-20 89,-6 25,12 42,33 48,59 8,10 15,19 22,33 26,55 34,111 37,170 8,5 16,11 22,18 14,14 31,38 41,56 9,16 17,34 24,52 52,-84 135,-155 237,-155 42,0 78,28 87,69 9,42 -11,83 -49,101 l -20,9 c -1,1 -2,1 -3,2 -21,9 -31,17 -45,35 -6,8 -12,16 -17,24 -40,66 -49,208 -1,272 23,31 56,47 92,60 34,12 70,18 107,18 44,0 88,-7 130,-16 141,-31 298,-96 442,-58 84,22 147,74 195,144 19,27 34,47 44,79 17,57 44,118 66,173 24,58 49,117 71,177 3,10 6,18 11,28 2,3 3,6 4,9 l 196,496 c 5,14 10,28 16,41 5,-13 10,-26 16,-40 l 132,-334 c 0,-1 1,-2 1,-3 12,-26 20,-53 31,-79 l 66,-166 c 22,-56 43,-112 66,-167 l 66,-167 c 2,-6 5,-12 9,-18 l 25,-35 c 0,-1 0,-1 1,-2 52,-71 119,-121 205,-140 174,-38 343,62 513,77 47,4 110,0 154,-17 11,-5 23,-10 35,-16 43,-20 66,-54 78,-99 4,-17 12,-58 11,-75 -5,-61 -21,-144 -71,-184 -13,-12 -13,-12 -30,-18 0,-1 -1,-1 -1,-1 l -15,-7 c -3,0 -5,-2 -7,-3 -4,-1 -8,-4 -11,-6 -33,-23 -47,-62 -35,-100 12,-39 46,-63 86,-63 69,0 131,34 180,81 128,125 158,342 107,509 -17,56 -45,104 -85,147 -112,122 -249,160 -404,168 v 1647 c 0,31 -15,58 -39,74 22,29 34,63 37,101 1,8 1,16 -1,24 4,10 6,20 6,31 v 151 c 0,50 -40,90 -90,90 h -20 c -11,0 -20,-2 -30,-5 -23,9 -48,12 -74,12 -43,0 -84,-10 -119,-33 -16,16 -38,26 -62,26 h -35 c -30,0 -56,-14 -73,-39 l -20,-28 c -10,38 -45,67 -86,67 h -25 c -6,0 -12,-1 -17,-2 -6,1 -11,2 -17,2 h -26 c -38,0 -69,-22 -83,-56 l -14,-34 h -21 l -14,34 c -14,34 -46,56 -83,56 h -27 c -2,0 -4,0 -6,0 -2,0 -5,0 -7,0 h -188 c -6,0 -12,-1 -17,-2 -6,1 -11,2 -17,2 h -26 c -38,0 -69,-22 -83,-56 l -14,-34 h -21 l -14,34 c -14,34 -46,56 -83,56 h -27 c -6,0 -11,-1 -17,-2 -5,1 -11,2 -16,2 h -26 c -20,0 -39,-6 -54,-18 -15,11 -34,18 -55,18 h -30 c -20,0 -40,-7 -55,-19 -15,13 -34,19 -55,19 h -25 c -31,0 -59,-16 -75,-41 -16,26 -44,41 -75,41 h -34 c -30,0 -57,-14 -74,-40 l -14,-20 -14,21 c -17,25 -44,39 -74,39 h -34 c -17,0 -34,-5 -48,-13 -30,14 -64,20 -98,20 -42,0 -82,-8 -116,-29 -16,13 -36,22 -59,22 h -34 c -31,0 -57,-14 -74,-39 l -19,-28 c -10,38 -46,67 -87,67 h -25 c -11,0 -22,-2 -32,-6 -9,4 -20,6 -31,6 h -26 c -7,0 -14,-1 -21,-3 -7,2 -14,3 -21,3 h -189 c -13,0 -25,-3 -36,-8 -16,28 -45,45 -78,45 h -20 c -29,0 -54,-12 -71,-36 -1,-1 -2,-1 -2,-2 -22,6 -44,8 -67,8 -41,0 -82,-8 -116,-29 -15,13 -36,22 -59,22 h -34 c -31,0 -57,-14 -74,-39 l -19,-28 c -10,38 -45,67 -87,67 h -25 c -10,0 -19,-2 -27,-4 -9,2 -18,4 -27,4 h -21 c -10,0 -20,-2 -29,-5 -24,9 -49,12 -74,12 -65,0 -122,-23 -164,-72 -17,-20 -30,-41 -39,-64 -8,35 -26,67 -55,91 -38,33 -86,45 -136,45 -32,0 -63,-5 -92,-18 -13,7 -27,11 -43,11 h -26 c -37,0 -69,-22 -83,-56 l -14,-34 h -21 l -14,34 c -14,34 -45,56 -83,56 h -26 c -14,0 -27,-3 -38,-8 -12,5 -25,8 -38,8 h -26 c -26,0 -50,-12 -66,-30 -17,18 -41,30 -67,30 h -26 c -11,0 -22,-2 -31,-6 -10,4 -21,6 -32,6 h -34 c -31,0 -57,-14 -74,-39 l -20,-28 c -10,38 -45,67 -86,67 h -25 c -23,0 -44,-9 -59,-23 -35,22 -74,30 -116,30 -41,0 -81,-8 -115,-29 -16,13 -37,22 -59,22 h -26 c -20,0 -38,-6 -54,-18 -15,11 -34,18 -55,18 h -29 c -21,0 -40,-7 -56,-19 -15,13 -34,19 -54,19 h -26 c -24,0 -46,-10 -63,-26 -35,23 -77,33 -122,33 -35,0 -68,-6 -98,-20 -14,8 -30,13 -46,13 h -34 c -29,0 -55,-13 -72,-37 l -10,-14 c -15,30 -45,51 -81,51 h -26 c -49,0 -89,-40 -89,-90 v -291 c 0,-15 3,-29 10,-42 -10,-14 -16,-32 -16,-51 v -15 c -45,-20 -81,-55 -94,-105 -9,-37 -1,-77 6,-114 2,-12 6,-30 6,-42 1,-58 -14,-102 1,-162 12,-47 42,-83 81,-107 V 671 c 0,-49 40,-90 89,-90 h 374 c 49,0 89,41 89,90 v 228 c 52,-143 166,-208 312,-229 70,-10 158,-5 227,16 33,10 67,25 97,45 l 47,-49 c 1,-1 1,-1 1,-1 l 11,-12 c 0,0 0,-1 1,-1 5,-5 10,-10 15,-16 41,-41 60,-71 127,-71 h 489 c 23,0 44,9 61,23 7,4 14,8 21,13 23,17 35,42 35,71 z m 1924,-712 5,153 c 0,1 0,2 0,3 0,19 3,37 3,57 0,41 4,82 4,123 -1,20 3,40 3,61 0,54 6,108 7,163 41,3 83,4 116,33 26,24 35,53 40,86 4,28 8,55 13,82 11,54 23,108 34,162 8,48 12,95 -31,130 -24,20 -38,19 -64,24 l -86,42 c 18,11 31,27 38,47 36,10 62,42 65,80 42,7 75,43 75,87 7,0 13,0 19,0 l 104,3 c 17,0 33,4 49,4 1,0 2,0 2,0 V 1148 c -5,0 -10,-1 -16,-1 -39,-1 -74,-5 -112,-14 -100,-24 -197,-72 -268,-145 z m -2504,262 -3,3 c 0,0 -1,1 -1,1 -3,2 -5,4 -7,6 -15,14 -29,30 -44,45 1,9 2,17 3,26 6,34 26,71 52,107 z m 1011,1630 c 10,18 16,38 19,58 6,-20 16,-39 28,-58 z m 1200,-35 c 6,11 9,25 9,39 v 174 h 27 v -174 c 0,-7 0,-14 2,-21 -12,-7 -22,-18 -29,-30 -3,4 -6,8 -9,12 z M 830,2805 c 17,10 31,25 39,45 l 27,66 28,-67 c 14,-34 46,-55 83,-55 h 38 c 11,0 21,2 31,6 9,-4 20,-6 30,-6 h 27 c 41,0 76,29 86,68 2,-7 5,-14 8,-20 -4,-4 -7,-7 -10,-11 -16,-18 -29,-38 -38,-61 -28,-73 -11,-153 11,-225 10,-35 23,-71 31,-106 18,-82 7,-159 39,-242 4,-12 10,-24 16,-35 20,-35 40,-51 70,-76 13,-11 28,-18 44,-20 0,-1 1,-1 2,-2 -5,-23 -10,-46 -18,-68 -8,-25 -19,-49 -30,-74 -29,-64 -63,-124 -95,-187 -34,-66 -61,-129 -84,-197 -7,3 -13,6 -20,9 -41,16 -73,41 -116,56 -63,21 -125,22 -184,-10 -7,-4 -14,-8 -20,-12 -12,49 -29,97 -50,145 -29,67 -66,129 -97,195 -18,40 -34,81 -43,124 -9,43 -7,83 -32,123 -1,2 -2,4 -3,5 24,18 51,34 70,46 65,42 126,85 162,155 28,53 40,114 6,163 0,1 0,1 0,2 33,56 51,119 33,184 -1,5 -3,11 -4,17 -3,24 -15,46 -34,60 0,1 -1,2 -2,3 0,1 -1,1 -1,2 z m 4156,5 c 13,10 24,23 31,40 l 27,66 28,-67 c 14,-34 46,-55 82,-55 h 39 c 32,0 60,18 76,44 3,-5 6,-10 10,-14 0,0 0,0 -1,-1 l -291,-856 v 827 c 0,6 0,11 -1,16 z m 657,74 v 174 h 38 l 78,-191 c -15,11 -33,17 -53,17 z m 153,-73 c 15,-11 33,-17 53,-17 h 30 c 32,0 60,16 76,42 16,-25 44,-42 76,-42 h 33 c 7,0 14,1 21,3 0,-1 0,-2 0,-3 v -826 l -46,135 c 0,1 -1,1 -1,2 -46,126 -84,256 -131,383 -20,53 -38,109 -56,164 -13,37 -25,75 -38,112 -5,14 -11,31 -17,47 z m -993,136 -56,78 56,80 z M 560,3065 c 3,0 11,0 13,-3 6,-7 7,-24 7,-32 0,-9 -1,-26 -7,-33 -2,-3 -10,-3 -13,-3 -3,0 -11,0 -13,3 -7,7 -7,24 -7,33 0,8 1,25 7,32 2,3 10,3 13,3 z"
             class="fil0" /></g><g
           id="g52"><polygon
             style="fill:#fefefe;fill-rule:nonzero"
             id="polygon11"
             points="382,3175 274,3025 219,3079 219,3175 193,3175 193,2884 219,2884 219,3043 380,2884 416,2884 293,3006 416,3175 "
             class="fil1" /><path
             style="fill:#fefefe;fill-rule:nonzero"
             inkscape:connector-curvature="0"
             d="m 696,3030 c 0,47 -12,85 -36,112 -24,27 -58,41 -100,41 -42,0 -76,-14 -100,-41 -24,-27 -36,-65 -36,-112 0,-48 12,-86 36,-113 24,-27 58,-41 100,-41 42,0 76,14 100,41 24,27 36,65 36,113 z m -136,125 c 34,0 61,-11 81,-34 19,-22 29,-52 29,-91 0,-40 -10,-70 -29,-92 -20,-22 -47,-34 -81,-34 -34,0 -61,12 -81,34 -19,22 -29,52 -29,92 0,39 10,69 29,91 20,23 47,34 81,34 z"
             class="fil1"
             id="1" /><polygon
             style="fill:#fefefe;fill-rule:nonzero"
             points="1020,2909 910,3175 881,3175 768,2909 771,3175 745,3175 745,2884 786,2884 896,3148 1007,2884 1045,2884 1045,3175 1019,3175 "
             class="fil1"
             id="2" /><path
             style="fill:#fefefe;fill-rule:nonzero"
             inkscape:connector-curvature="0"
             d="m 1106,2884 h 27 v 179 c 0,31 7,55 21,70 13,14 35,22 65,22 30,0 52,-8 66,-23 14,-14 21,-38 21,-69 v -179 h 26 v 186 c 0,37 -9,65 -29,84 -19,19 -47,29 -84,29 -37,0 -65,-10 -84,-29 -19,-19 -29,-48 -29,-85 z"
             class="fil1"
             id="3" /><polygon
             style="fill:#fefefe;fill-rule:nonzero"
             points="1419,2914 1419,3175 1394,3175 1394,2884 1427,2884 1608,3145 1608,2884 1633,2884 1633,3175 1598,3175 "
             class="fil1"
             id="4" /><polygon
             style="fill:#fefefe;fill-rule:nonzero"
             points="1696,3175 1696,2884 1722,2884 1722,3175 "
             class="fil1"
             id="5" /><polygon
             style="fill:#fefefe;fill-rule:nonzero"
             points="1855,3175 1855,2910 1755,2910 1755,2884 1981,2884 1981,2910 1881,2910 1881,3175 "
             class="fil1"
             id="6" /><path
             style="fill:#fefefe;fill-rule:nonzero"
             inkscape:connector-curvature="0"
             d="m 2031,3057 h 119 l -59,-149 z m -74,118 119,-291 h 30 l 118,291 h -26 l -36,-90 h -142 l -37,90 z"
             class="fil1"
             id="7" /><path
             style="fill:#fefefe;fill-rule:nonzero"
             inkscape:connector-curvature="0"
             d="m 2248,3079 h 27 v 2 c 0,22 7,40 22,53 15,14 35,20 60,20 24,0 44,-5 58,-16 15,-11 22,-25 22,-44 0,-14 -4,-24 -12,-31 -9,-7 -26,-14 -52,-19 l -56,-11 c -20,-4 -36,-12 -46,-24 -10,-12 -15,-28 -15,-49 0,-25 9,-46 27,-61 17,-15 41,-23 72,-23 31,0 55,8 73,24 18,16 28,38 29,66 h -26 c -2,-21 -9,-36 -22,-47 -13,-11 -31,-16 -54,-16 -22,0 -40,5 -53,15 -13,10 -20,24 -20,41 0,14 5,24 14,31 9,8 26,14 51,19 l 49,9 c 24,5 41,13 52,25 11,12 16,29 16,50 0,28 -9,50 -27,66 -19,16 -45,24 -78,24 -34,0 -61,-9 -81,-27 -20,-17 -30,-42 -30,-72 z"
             class="fil1"
             id="8" /><path
             style="fill:#fefefe;fill-rule:nonzero"
             inkscape:connector-curvature="0"
             d="m 2853,3122 c -9,20 -22,35 -39,45 -17,11 -38,16 -62,16 -40,0 -72,-14 -96,-42 -24,-27 -36,-65 -36,-111 0,-48 12,-86 36,-113 24,-27 58,-41 100,-41 33,0 60,9 81,28 21,18 33,42 35,73 h -27 c -4,-24 -14,-42 -29,-54 -15,-12 -36,-18 -61,-18 -34,0 -60,11 -80,33 -19,22 -29,53 -29,92 0,38 10,68 29,91 19,22 45,34 78,34 27,0 50,-9 69,-27 19,-18 28,-39 28,-64 v -14 h -81 v -26 h 108 v 151 h -21 z"
             class="fil1"
             id="9" /><polygon
             style="fill:#fefefe;fill-rule:nonzero"
             points="2956,2914 2956,3175 2931,3175 2931,2884 2964,2884 3145,3145 3145,2884 3170,2884 3170,3175 3136,3175 "
             class="fil1"
             id="10" /><path
             style="fill:#fefefe;fill-rule:nonzero"
             inkscape:connector-curvature="0"
             d="m 3232,2884 h 26 v 179 c 0,31 7,55 21,70 14,14 36,22 66,22 30,0 52,-8 66,-23 14,-14 21,-38 21,-69 v -179 h 26 v 186 c 0,37 -10,65 -29,84 -20,19 -48,29 -84,29 -37,0 -65,-10 -84,-29 -19,-19 -29,-48 -29,-85 z"
             class="fil1"
             id="11" /><polygon
             style="fill:#fefefe;fill-rule:nonzero"
             points="3505,3213 3485,3213 3587,2876 3606,2876 "
             class="fil1"
             id="12" /><polygon
             style="fill:#fefefe;fill-rule:nonzero"
             points="3645,2884 3645,3148 3808,3148 3808,3175 3619,3175 3619,2884 "
             class="fil1"
             id="13" /><polygon
             style="fill:#fefefe;fill-rule:nonzero"
             points="3850,3175 3850,2884 3876,2884 3876,3175 "
             class="fil1"
             id="14" /><polygon
             style="fill:#fefefe;fill-rule:nonzero"
             points="3964,2914 3964,3175 3939,3175 3939,2884 3972,2884 4153,3145 4153,2884 4178,2884 4178,3175 4144,3175 "
             class="fil1"
             id="15" /><path
             style="fill:#fefefe;fill-rule:nonzero"
             inkscape:connector-curvature="0"
             d="m 4240,2884 h 26 v 179 c 0,31 7,55 21,70 14,14 36,22 66,22 29,0 51,-8 65,-23 14,-14 21,-38 21,-69 v -179 h 27 v 186 c 0,37 -10,65 -30,84 -19,19 -47,29 -83,29 -37,0 -65,-10 -84,-29 -20,-19 -29,-48 -29,-85 z"
             class="fil1"
             id="16" /><polygon
             style="fill:#fefefe;fill-rule:nonzero"
             points="4743,3175 4709,3175 4621,3045 4533,3175 4499,3175 4605,3026 4507,2884 4540,2884 4623,3006 4706,2884 4738,2884 4637,3025 "
             class="fil1"
             id="17" /><polygon
             style="fill:#fefefe;fill-rule:nonzero"
             points="5168,2909 5058,3175 5028,3175 4916,2909 4918,3175 4893,3175 4893,2884 4934,2884 5043,3148 5154,2884 5192,2884 5192,3175 5167,3175 "
             class="fil1"
             id="18" /><path
             style="fill:#fefefe;fill-rule:nonzero"
             inkscape:connector-curvature="0"
             d="m 5301,3057 h 119 l -60,-149 z m -75,118 120,-291 h 30 l 118,291 h -26 l -37,-90 h -142 l -36,90 z"
             class="fil1"
             id="19" /><polygon
             style="fill:#fefefe;fill-rule:nonzero"
             points="5553,2884 5553,3148 5716,3148 5716,3175 5527,3175 5527,2884 "
             class="fil1"
             id="20" /><path
             style="fill:#fefefe;fill-rule:nonzero"
             inkscape:connector-curvature="0"
             d="m 5804,3057 h 119 l -60,-149 z m -75,118 120,-291 h 30 l 118,291 h -26 l -37,-90 h -142 l -36,90 z"
             class="fil1"
             id="21" /><polygon
             style="fill:#fefefe;fill-rule:nonzero"
             points="6056,2914 6056,3175 6030,3175 6030,2884 6063,2884 6245,3145 6245,2884 6270,2884 6270,3175 6235,3175 "
             class="fil1"
             id="22" /><path
             style="fill:#fefefe;fill-rule:nonzero"
             inkscape:connector-curvature="0"
             d="m 6552,3122 c -9,20 -22,35 -40,45 -17,11 -37,16 -61,16 -40,0 -72,-14 -96,-42 -24,-27 -36,-65 -36,-111 0,-48 12,-86 36,-113 24,-27 57,-41 100,-41 32,0 59,9 80,28 22,18 33,42 36,73 h -27 c -4,-24 -14,-42 -29,-54 -16,-12 -36,-18 -62,-18 -33,0 -60,11 -79,33 -19,22 -29,53 -29,92 0,38 9,68 29,91 19,22 45,34 77,34 28,0 51,-9 70,-27 19,-18 28,-39 28,-64 v -14 h -81 v -26 h 107 v 151 h -20 z"
             class="fil1"
             id="23" /><g
             id="g50"><path
               style="fill:#fefefe"
               inkscape:connector-curvature="0"
               id="path36"
               d="m 4504,1021 v 1376 85 h 48 c 52,3 50,18 50,95 l 86,6 c 27,6 32,33 30,62 -2,29 -8,24 30,24 139,-2 116,2 116,125 h 34 V 1435 c 10,12 136,390 146,421 l 319,938 h 343 c 11,-20 100,-294 117,-338 44,-117 88,-265 131,-382 l 131,-382 c 10,-30 20,-55 30,-86 l 56,-164 c 3,-7 1,-3 4,-7 v 1359 h 397 V 1021 c -86,2 -172,-9 -255,-19 -40,-5 -85,-9 -122,5 -32,13 -39,31 -51,51 -36,59 -67,147 -97,212 l -250,569 c -27,63 -54,126 -82,189 -28,60 -59,129 -83,189 h -195 c -52,-125 -110,-255 -166,-380 -57,-126 -109,-253 -166,-378 -56,-126 -108,-254 -165,-379 -36,-80 -81,-91 -184,-78 -86,10 -163,18 -252,19 z"
               class="fil0" /><path
               style="fill:#fefefe"
               inkscape:connector-curvature="0"
               id="path38"
               d="m 737,2546 c -8,-8 -22,-24 -26,-34 23,-14 89,-7 42,-97 -56,-107 -212,-141 -272,-237 -49,-79 -33,-192 -1,-276 36,-93 67,-138 135,-200 -3,49 -62,155 -81,199 -25,58 -59,168 -7,221 12,-20 15,-69 20,-96 42,-198 187,-315 211,-583 93,2 106,121 242,75 40,-14 70,-38 112,-55 45,-17 74,-37 100,-65 l 7,11 c 1,1 3,8 3,10 2,9 4,15 7,24 63,216 115,264 196,442 13,27 24,53 34,82 11,33 15,58 23,93 l 32,3 c 16,-94 10,-151 -30,-226 -30,-56 -95,-112 -113,-157 82,19 118,88 156,151 58,95 55,125 56,250 31,29 132,57 132,128 l -44,6 c -7,-8 -10,-17 -20,-29 -24,-26 -56,-42 -93,-53 -122,-39 -113,17 -135,40 l -10,-10 c -7,-7 -2,-4 -10,-8 -20,17 -35,26 -49,50 -40,73 -27,166 -46,253 -21,99 -94,235 -25,313 56,63 149,65 226,37 47,-17 3,-17 84,-17 133,0 265,0 398,0 -3,-10 -10,-17 -16,-25 l -57,-76 c -11,-14 -69,-86 -70,-103 14,-3 36,-20 45,-30 57,-58 -21,-123 -42,-150 -47,-62 -25,-173 -115,-194 l 17,-149 c 0,-20 3,-20 1,-35 -6,-55 -2,-48 -22,-107 -15,-45 -43,-103 -67,-144 -36,-59 -64,-94 -108,-147 -68,-80 -166,-180 -183,-285 -4,-25 -3,-56 -8,-77 20,-14 54,-54 75,-74 4,-4 6,-5 9,-8 l 11,-10 c 48,-43 116,-119 152,-150 1,0 2,-1 2,-1 31,-26 102,-100 132,-130 l 211,-204 c 7,-7 13,-13 19,-21 h -489 c -28,0 -29,11 -64,45 -5,5 -8,8 -13,13 l -12,13 c 0,0 -1,1 -1,2 l -54,55 c -14,15 -41,45 -56,55 -27,-39 -78,-69 -125,-82 -50,-15 -126,-23 -188,-13 -116,16 -203,62 -242,175 -18,52 -23,117 -23,185 0,22 4,28 4,48 l -1,159 c -13,122 -29,144 -99,214 -14,14 -38,42 -53,52 V 671 H 187 v 1634 c -35,8 -73,30 -83,69 -11,44 3,82 2,142 -1,39 -22,103 -15,133 9,35 53,57 96,57 v 85 l 346,1 c 61,8 132,35 210,-26 10,-7 8,-5 15,-15 33,-45 12,5 27,-52 11,-41 -4,-81 -24,-115 -6,-10 -16,-32 -24,-38 z M 973,1197 c 11,6 68,25 82,23 4,-143 73,-98 74,-43 1,37 -17,48 -25,72 18,7 53,26 72,26 76,-74 48,-198 -29,-242 -78,-44 -182,11 -174,164 z m -155,65 8,-8 c -13,-36 -45,-70 -10,-108 36,4 19,43 44,73 l 60,-24 c 3,-80 -57,-198 -144,-143 -30,19 -48,63 -46,115 2,57 23,84 49,111 z"
               class="fil0" /><path
               style="fill:#fefefe"
               inkscape:connector-curvature="0"
               id="path40"
               d="m 3526,1626 c -27,0 -56,7 -79,9 -26,3 -55,6 -77,11 -7,27 -11,54 -16,83 l -31,166 c -5,24 -16,59 -11,81 64,0 147,73 200,74 4,50 55,77 55,89 l -4,30 c -34,0 -78,7 -109,14 0,45 13,52 -37,54 -35,1 -24,7 -24,78 -10,1 -26,3 -39,5 -49,5 -35,1 -35,87 -64,0 -298,0 -333,17 0,15 0,29 0,44 0,55 -7,34 -58,38 -44,3 -38,7 -31,95 l -88,3 c -15,1 -12,3 -27,3 -6,27 -3,58 -3,85 -43,0 -110,-1 -146,7 -2,14 -4,8 -4,21 0,14 2,5 2,16 0,11 -11,52 8,52 h 1012 c 12,0 13,-14 17,-25 10,-29 21,-63 34,-91 -58,-14 -69,-102 -29,-142 52,-53 148,-18 148,50 0,47 -10,71 -51,92 2,17 15,42 20,58 6,17 20,42 21,58 h 1029 v -89 c -19,-4 -118,-7 -146,-7 -6,-26 -1,-58 -7,-85 -23,0 -31,-3 -54,-3 -20,0 -41,0 -61,0 2,-28 14,-66 0,-95 l -85,-3 c 0,-18 -4,-29 -3,-51 0,-41 3,-38 -72,-38 -21,0 -28,-3 -51,-3 l -105,-4 c -18,-1 -37,1 -54,0 -16,0 -36,-5 -51,-6 v -82 c -24,0 -56,-2 -75,-7 v -74 c -16,-1 -42,-6 -58,-7 0,-23 -3,-32 -3,-51 l -96,-13 c -18,-3 -23,-5 -23,-21 0,-14 38,-26 55,-54 23,-40 3,-35 50,-58 l 110,-54 c 60,-27 64,48 11,-216 -31,-153 7,-115 -118,-134 -55,-8 -54,-11 -54,-69 1,-63 -7,-117 -6,-180 0,-26 -4,-37 -4,-61 0,-45 -3,-78 -3,-122 0,-24 -4,-33 -4,-58 l -6,-241 c 0,-26 -4,-36 -4,-61 0,-58 -5,-123 -7,-180 0,-21 1,-44 0,-65 -1,-19 -2,-35 -3,-58 -1,-52 -16,-107 -40,-150 -5,-10 -18,-29 -25,-36 -10,-10 -28,-17 -44,-21 0,-17 -3,-17 -3,-34 -2,-54 -6,-108 -30,-157 -9,-19 -26,-28 -28,-50 -53,35 -72,129 -71,200 0,24 4,33 -11,44 -36,25 -27,7 -56,56 -38,64 -31,114 -40,177 -5,33 1,72 -4,105 l -18,532 c 0,22 -4,29 -4,51 0,18 1,37 0,55 l -4,103 c -6,34 1,73 -4,106 z"
               class="fil0" /><path
               style="fill:#fefefe"
               inkscape:connector-curvature="0"
               id="path42"
               d="m 1603,1082 v 557 l 84,124 c 9,17 17,29 25,46 64,127 78,184 62,317 -3,23 -8,46 -8,70 50,33 55,36 73,108 19,76 18,66 62,118 48,56 59,136 -16,175 10,19 22,33 35,50 7,9 11,16 17,24 l 56,74 c 6,9 10,14 17,24 10,14 12,22 21,22 h 574 c 0,-90 -13,-121 58,-122 h 72 c 15,0 16,2 19,-8 9,-25 -14,-61 21,-77 10,-4 74,-7 92,-7 0,-66 -7,-96 61,-95 40,0 36,3 31,-35 -1,-13 2,-15 3,-26 H 2004 V 688 c -12,3 -18,12 -26,21 -9,9 -16,16 -26,26 -8,8 -14,15 -24,23 l -276,270 c -9,10 -49,43 -49,54 z"
               class="fil0" /><path
               style="fill:#fefefe"
               inkscape:connector-curvature="0"
               id="path44"
               d="m 4464,1060 c 93,-2 172,-10 262,-23 108,-14 154,-1 192,90 59,142 114,286 173,429 58,142 113,286 172,429 59,142 120,289 173,431 h 204 c 24,-69 57,-146 86,-214 29,-72 57,-143 86,-215 l 260,-645 c 31,-74 64,-174 101,-241 12,-22 20,-43 54,-57 37,-16 84,-12 126,-6 87,12 177,23 266,22 144,-5 276,-27 381,-141 29,-32 52,-67 66,-113 42,-139 17,-320 -85,-418 -27,-27 -69,-57 -117,-57 0,1 2,0 2,1 l 15,7 c 25,10 31,13 53,31 67,55 95,148 103,247 2,28 -8,84 -13,104 -20,75 -63,128 -128,158 -13,7 -28,13 -40,18 -49,19 -124,30 -194,23 -239,-21 -475,-196 -638,27 l -24,35 -66,167 c -23,57 -44,111 -66,167 l -66,167 c -12,26 -21,55 -32,81 l -132,334 c -12,30 -22,54 -33,84 l -57,145 c -6,14 -2,11 -12,19 l -31,-81 c -11,-30 -22,-55 -33,-84 -10,-28 -21,-54 -33,-84 l -195,-496 c -8,-15 -11,-23 -17,-40 -28,-79 -116,-281 -138,-354 -6,-20 -20,-38 -32,-54 -193,-286 -524,56 -831,-55 -52,-19 -98,-44 -133,-90 -70,-94 -62,-276 -4,-372 7,-12 15,-22 23,-33 24,-31 46,-48 81,-63 l 20,-9 c -86,0 -156,88 -188,166 -36,86 -44,213 -12,313 42,133 173,207 294,235 71,17 97,11 157,15 z"
               class="fil0" /><path
               style="fill:#fefefe"
               inkscape:connector-curvature="0"
               id="path46"
               d="m 826,1258 -8,7 c -20,19 -43,35 -61,54 -51,52 10,66 76,119 20,17 42,35 73,45 71,23 129,-17 180,-43 26,-12 54,-25 78,-40 27,-16 32,-25 44,-45 9,-14 0,-1 16,-8 -3,-9 -40,-52 -77,-70 -35,-16 -71,-24 -105,-42 -141,-72 -177,9 -216,23 z m 576,936 c -59,29 -49,177 -63,251 -13,74 -68,188 -52,262 22,111 170,111 260,48 27,-18 67,-65 131,-110 169,-118 272,-77 151,-219 -34,-40 -30,-57 -46,-113 -43,-145 -152,-41 -189,-24 -37,16 -93,26 -132,5 -36,-19 -43,-60 -60,-100 z m -1016,-1 c -89,24 -34,82 -175,133 -36,13 -80,28 -81,71 -1,52 19,81 6,143 -33,157 -5,132 135,146 133,14 143,37 242,67 91,28 185,39 232,-32 51,-77 -37,-168 -71,-207 -71,-81 -69,-83 -128,-181 -31,-52 -81,-161 -160,-140 z"
               class="fil0" /><path
               style="fill:#fefefe"
               inkscape:connector-curvature="0"
               id="path48"
               d="m 2676,2388 h 282 v -271 c 0,-8 -3,-11 -11,-11 h -271 z m -317,-271 v 271 h 282 v -282 h -271 c -8,0 -11,3 -11,11 z m -317,271 h 282 v -271 c 0,-8 -3,-11 -11,-11 h -271 z m 0,-317 h 282 v -271 c 0,-8 -2,-11 -10,-11 h -272 z"
               class="fil0" /></g></g><path
           style="fill:#fefefe"
           inkscape:connector-curvature="0"
           id="path54"
           d="m 455,1748 h 1103 v 677 c 250,-33 540,-51 850,-51 935,0 1694,169 1694,378 0,68 -81,132 -221,187 h 1020 c 33,0 61,24 67,55 h 567 v -200 h 237 v 200 h 480 v 181 h 187 v 162 h -187 v 3 H 560 v -3 H 234 v -162 h 326 v -181 h 543 c -243,-66 -389,-150 -389,-242 0,0 0,-1 0,-1 H 455 Z"
           class="fil0" /><rect
           style="fill:#fefefe"
           id="rect56"
           height="399"
           width="644"
           y="1407"
           x="701"
           class="fil0" /><ellipse
           style="fill:#fefefe"
           id="ellipse58"
           ry="130"
           rx="155"
           cy="3045"
           cx="585"
           class="fil0" /><g
           id="g62"><path
             style="fill:#fefefe"
             inkscape:connector-curvature="0"
             id="path60"
             d="m 2402,3433 c -20,6 -40,4 -64,4 -23,0 -47,0 -70,0 -23,0 -45,-3 -68,-3 -301,1 -602,-6 -904,-6 -370,0 -741,-10 -1111,-10 -44,0 -79,-35 -79,-78 v -3 c 0,-43 35,-78 79,-78 46,0 93,0 140,0 46,0 92,-3 138,-3 46,0 93,0 140,0 46,0 92,-2 137,-2 47,0 94,0 140,0 46,0 92,-2 138,-2 47,0 94,0 140,0 46,0 92,-2 138,-2 47,0 94,0 140,0 46,0 92,-3 138,-3 47,0 94,0 140,0 46,0 92,-2 138,-2 47,0 93,0 140,0 46,0 92,-2 138,-2 h 210 c 14,-1 22,-3 36,-2 0,0 0,0 0,-1 15,-20 37,-32 63,-32 h 20 c 14,0 27,4 38,10 11,-6 24,-10 38,-10 h 23 c 14,0 27,4 39,10 11,-6 24,-10 38,-10 h 19 c 1,0 3,0 4,0 1,0 2,0 3,0 h 19 c 14,0 27,4 39,10 11,-6 24,-10 38,-10 h 23 c 14,0 27,4 38,10 12,-6 25,-10 39,-10 h 19 c 1,0 2,0 3,0 1,0 2,0 3,0 h 20 c 14,0 27,4 38,10 12,-6 25,-10 38,-10 h 24 c 14,0 27,4 38,10 11,-6 25,-10 38,-10 h 20 c 4,0 8,1 12,1 9,-32 40,-56 75,-56 h 18 c 29,0 54,15 68,38 14,-23 39,-38 67,-38 h 18 c 7,0 14,1 20,2 7,-1 13,-2 20,-2 h 18 c 36,0 67,24 76,57 12,-3 25,-5 38,-5 18,0 37,3 54,10 17,-7 35,-10 54,-10 37,0 72,12 98,40 6,7 11,14 16,22 3,-5 7,-10 12,-15 29,-33 68,-49 112,-49 23,0 46,5 66,14 11,-5 23,-9 37,-9 h 18 c 1,0 3,0 4,1 12,-4 24,-6 37,-6 7,0 14,1 21,2 11,-31 40,-52 74,-52 h 18 c 34,0 64,22 74,53 3,0 6,0 9,-1 11,-30 40,-52 74,-52 h 18 c 43,0 79,35 79,78 v 10 c 8,0 16,1 23,2 h 207 c 46,0 92,2 138,2 47,0 93,0 140,0 46,0 92,2 138,2 47,0 93,0 140,0 46,0 92,3 138,3 47,0 93,0 140,0 46,0 92,2 138,2 47,0 93,0 140,0 46,0 92,2 138,2 46,0 93,0 140,0 46,0 92,2 138,2 46,0 93,0 140,0 46,0 92,3 138,3 46,0 93,0 140,0 43,0 78,35 78,78 v 3 c 0,43 -35,78 -78,78 -279,0 -558,7 -836,7 -371,0 -741,9 -1112,9 -46,0 -92,3 -138,3 -23,0 -46,0 -70,0 -7,0 -14,0 -20,0 v 4 c 0,43 -36,79 -79,79 h -18 c -5,0 -11,-1 -16,-2 -12,3 -25,5 -38,5 -23,0 -45,-5 -64,-14 -12,7 -25,11 -39,11 h -18 c -9,0 -18,-2 -26,-5 -8,3 -16,5 -25,5 h -21 c -12,0 -23,-3 -32,-7 -10,4 -21,7 -32,7 h -18 c -14,0 -26,-4 -37,-9 -20,9 -43,14 -66,14 -26,0 -51,-6 -73,-18 -12,8 -27,13 -42,13 h -21 c -9,0 -17,-2 -25,-4 -8,2 -16,4 -25,4 h -18 c -17,0 -33,-6 -45,-15 -13,9 -29,15 -46,15 h -16 c -17,0 -33,-6 -46,-15 -13,9 -29,15 -46,15 h -18 c -7,0 -13,-1 -19,-3 -7,2 -13,3 -20,3 h -18 c -7,0 -13,-1 -20,-3 -6,2 -13,3 -20,3 h -18 c -3,0 -6,-1 -9,-1 -3,0 -7,1 -10,1 h -24 c -17,0 -33,-5 -46,-15 -13,9 -29,15 -46,15 h -18 c -9,0 -17,-2 -25,-5 -8,3 -16,5 -25,5 h -21 c -11,0 -22,-3 -32,-7 -9,4 -20,7 -31,7 h -22 c -14,0 -27,-4 -38,-10 -12,6 -25,10 -39,10 h -22 c -19,0 -37,-7 -50,-18 -14,11 -32,18 -51,18 h -21 c -14,0 -27,-4 -39,-10 -11,6 -25,10 -39,10 h -21 c -20,0 -37,-7 -51,-18 -14,11 -31,18 -51,18 h -21 c -14,0 -27,-4 -39,-10 -11,6 -24,10 -38,10 h -22 c -35,0 -65,-22 -75,-56 z"
             class="fil0" /></g><g
           id="g72"><path
             style="fill:#fefefe;fill-rule:nonzero"
             inkscape:connector-curvature="0"
             id="path64"
             d="m 2487,3441 -48,-154 h 20 l 40,135 36,-135 h 23 l 39,135 38,-135 h 19 l -47,154 h -21 l -39,-137 -38,137 z m 222,0 -48,-154 h 19 l 40,135 37,-135 h 23 l 39,135 38,-135 h 19 l -47,154 h -21 l -39,-137 -39,137 z m 221,0 -48,-154 h 20 l 40,135 36,-135 h 24 l 38,135 38,-135 h 20 l -47,154 h -22 l -39,-137 -38,137 z m 184,0 v -26 h 21 v 26 z m 71,0 v -210 h 18 v 128 l 79,-72 h 27 l -63,57 73,97 h -24 l -63,-85 -29,26 v 59 z m 153,0 v -210 h 18 v 210 z m 58,-186 v -24 h 18 v 24 z m 0,186 v -154 h 18 v 154 z m 57,0 v -154 h 18 v 29 c 6,-11 14,-19 24,-24 10,-5 21,-8 33,-8 13,0 24,3 32,8 8,5 14,13 18,24 7,-11 15,-19 25,-24 10,-5 21,-8 33,-8 18,0 31,5 40,14 8,9 12,24 12,43 v 100 h -18 v -87 c 0,-19 -3,-33 -8,-40 -6,-8 -16,-12 -29,-12 -16,0 -29,5 -39,15 -10,9 -15,21 -15,36 v 88 h -16 v -87 c 0,-19 -3,-33 -9,-40 -6,-8 -15,-12 -29,-12 -16,0 -29,5 -39,15 -10,9 -15,21 -15,36 v 88 z m 285,0 v -26 h 21 v 26 z m 81,-77 c 0,19 5,34 15,46 10,11 23,17 40,17 16,0 30,-6 39,-17 10,-12 15,-27 15,-46 0,-19 -5,-34 -15,-46 -9,-11 -23,-17 -39,-17 -17,0 -30,6 -40,17 -10,12 -15,27 -15,46 z m -18,0 c 0,-25 6,-44 20,-60 13,-15 31,-22 53,-22 21,0 39,7 53,22 13,16 20,35 20,60 0,24 -7,44 -20,60 -14,15 -32,22 -53,22 -22,0 -40,-7 -53,-22 -14,-16 -20,-36 -20,-60 z m 194,77 h -18 v -154 h 18 v 26 c 4,-10 9,-18 16,-23 8,-6 16,-8 25,-8 3,0 6,0 9,1 3,0 6,1 9,3 v 19 c -3,-1 -6,-1 -9,-2 -2,0 -5,-1 -7,-1 -11,0 -20,4 -27,10 -7,7 -13,16 -16,29 z m 64,0 v -26 h 21 v 26 z m 72,-186 v -24 h 18 v 24 z m 0,186 v -154 h 18 v 154 z m 175,-78 c 0,-18 -5,-33 -15,-45 -9,-11 -23,-16 -39,-16 -16,0 -29,5 -39,17 -10,11 -15,26 -15,44 0,19 5,34 15,45 10,11 23,17 39,17 17,0 30,-6 40,-17 9,-11 14,-26 14,-45 z m 18,-132 v 210 h -18 v -27 c -6,10 -14,18 -23,23 -9,5 -19,7 -31,7 -22,0 -39,-7 -52,-22 -14,-15 -20,-35 -20,-59 0,-24 6,-43 20,-58 13,-15 30,-22 52,-22 11,0 21,2 30,7 9,5 17,13 24,23 v -82 z"
             class="fil1" /><g
             id="g70"><path
               style="fill:#fefefe"
               inkscape:connector-curvature="0"
               id="path66"
               d="m 4370,3335 c 0,30 21,23 53,23 24,0 47,0 70,0 46,0 90,-2 138,-2 369,0 744,-9 1112,-9 278,0 559,-7 836,-7 v -3 c -47,0 -94,0 -140,0 -49,0 -92,-2 -138,-2 -47,0 -94,0 -140,0 -49,0 -92,-2 -138,-2 -47,0 -94,0 -140,0 -49,0 -92,-2 -138,-2 -47,0 -93,0 -140,0 -49,0 -91,-3 -138,-3 -47,0 -93,0 -140,0 -49,0 -91,-2 -138,-2 -47,0 -93,0 -140,0 -48,0 -91,-2 -138,-2 -47,0 -93,0 -140,0 -48,0 -91,-2 -138,-2 h -210 c -7,0 -53,-10 -53,13 z"
               class="fil0" /><path
               style="fill:#fefefe"
               inkscape:connector-curvature="0"
               id="path68"
               d="m 185,3337 v 3 c 367,0 742,9 1111,9 299,0 603,7 904,7 24,0 42,2 68,2 23,0 47,0 70,0 33,0 55,7 55,-23 0,-10 -11,-15 -19,-16 -12,-1 -20,3 -34,3 h -210 c -47,0 -89,2 -138,2 -47,0 -93,0 -140,0 -47,0 -89,2 -138,2 -46,0 -93,0 -140,0 -47,0 -89,2 -138,2 -46,0 -93,0 -140,0 -46,0 -89,3 -138,3 -46,0 -93,0 -140,0 -46,0 -89,2 -138,2 -46,0 -93,0 -140,0 -46,0 -89,2 -137,2 -47,0 -94,0 -140,0 -47,0 -90,2 -138,2 -47,0 -94,0 -140,0 z"
               class="fil0" /></g></g><g
           id="g138"><polygon
             style="fill:#373435;fill-rule:nonzero"
             id="polygon74"
             points="382,3175 274,3025 219,3079 219,3175 193,3175 193,2884 219,2884 219,3043 380,2884 416,2884 293,3006 416,3175 "
             class="fil2" /><path
             style="fill:#373435;fill-rule:nonzero"
             inkscape:connector-curvature="0"
             d="m 696,3030 c 0,47 -12,85 -36,112 -24,27 -58,41 -100,41 -42,0 -76,-14 -100,-41 -24,-27 -36,-65 -36,-112 0,-48 12,-86 36,-113 24,-27 58,-41 100,-41 42,0 76,14 100,41 24,27 36,65 36,113 z m -136,125 c 34,0 61,-11 81,-34 19,-22 29,-52 29,-91 0,-40 -10,-70 -29,-92 -20,-22 -47,-34 -81,-34 -34,0 -61,12 -81,34 -19,22 -29,52 -29,92 0,39 10,69 29,91 20,23 47,34 81,34 z"
             class="fil2"
             id="path76" /><polygon
             style="fill:#373435;fill-rule:nonzero"
             points="1020,2909 910,3175 881,3175 768,2909 771,3175 745,3175 745,2884 786,2884 896,3148 1007,2884 1045,2884 1045,3175 1019,3175 "
             class="fil2"
             id="polygon78" /><path
             style="fill:#373435;fill-rule:nonzero"
             inkscape:connector-curvature="0"
             d="m 1106,2884 h 27 v 179 c 0,31 7,55 21,70 13,14 35,22 65,22 30,0 52,-8 66,-23 14,-14 21,-38 21,-69 v -179 h 26 v 186 c 0,37 -9,65 -29,84 -19,19 -47,29 -84,29 -37,0 -65,-10 -84,-29 -19,-19 -29,-48 -29,-85 z"
             class="fil2"
             id="path80" /><polygon
             style="fill:#373435;fill-rule:nonzero"
             points="1419,2914 1419,3175 1394,3175 1394,2884 1427,2884 1608,3145 1608,2884 1633,2884 1633,3175 1598,3175 "
             class="fil2"
             id="polygon82" /><polygon
             style="fill:#373435;fill-rule:nonzero"
             points="1696,3175 1696,2884 1722,2884 1722,3175 "
             class="fil2"
             id="polygon84" /><polygon
             style="fill:#373435;fill-rule:nonzero"
             points="1855,3175 1855,2910 1755,2910 1755,2884 1981,2884 1981,2910 1881,2910 1881,3175 "
             class="fil2"
             id="polygon86" /><path
             style="fill:#373435;fill-rule:nonzero"
             inkscape:connector-curvature="0"
             d="m 2031,3057 h 119 l -59,-149 z m -74,118 119,-291 h 30 l 118,291 h -26 l -36,-90 h -142 l -37,90 z"
             class="fil2"
             id="path88" /><path
             style="fill:#373435;fill-rule:nonzero"
             inkscape:connector-curvature="0"
             d="m 2248,3079 h 27 v 2 c 0,22 7,40 22,53 15,14 35,20 60,20 24,0 44,-5 58,-16 15,-11 22,-25 22,-44 0,-14 -4,-24 -12,-31 -9,-7 -26,-14 -52,-19 l -56,-11 c -20,-4 -36,-12 -46,-24 -10,-12 -15,-28 -15,-49 0,-25 9,-46 27,-61 17,-15 41,-23 72,-23 31,0 55,8 73,24 18,16 28,38 29,66 h -26 c -2,-21 -9,-36 -22,-47 -13,-11 -31,-16 -54,-16 -22,0 -40,5 -53,15 -13,10 -20,24 -20,41 0,14 5,24 14,31 9,8 26,14 51,19 l 49,9 c 24,5 41,13 52,25 11,12 16,29 16,50 0,28 -9,50 -27,66 -19,16 -45,24 -78,24 -34,0 -61,-9 -81,-27 -20,-17 -30,-42 -30,-72 z"
             class="fil2"
             id="path90" /><path
             style="fill:#373435;fill-rule:nonzero"
             inkscape:connector-curvature="0"
             d="m 2853,3122 c -9,20 -22,35 -39,45 -17,11 -38,16 -62,16 -40,0 -72,-14 -96,-42 -24,-27 -36,-65 -36,-111 0,-48 12,-86 36,-113 24,-27 58,-41 100,-41 33,0 60,9 81,28 21,18 33,42 35,73 h -27 c -4,-24 -14,-42 -29,-54 -15,-12 -36,-18 -61,-18 -34,0 -60,11 -80,33 -19,22 -29,53 -29,92 0,38 10,68 29,91 19,22 45,34 78,34 27,0 50,-9 69,-27 19,-18 28,-39 28,-64 v -14 h -81 v -26 h 108 v 151 h -21 z"
             class="fil2"
             id="path92" /><polygon
             style="fill:#373435;fill-rule:nonzero"
             points="2956,2914 2956,3175 2931,3175 2931,2884 2964,2884 3145,3145 3145,2884 3170,2884 3170,3175 3136,3175 "
             class="fil2"
             id="polygon94" /><path
             style="fill:#373435;fill-rule:nonzero"
             inkscape:connector-curvature="0"
             d="m 3232,2884 h 26 v 179 c 0,31 7,55 21,70 14,14 36,22 66,22 30,0 52,-8 66,-23 14,-14 21,-38 21,-69 v -179 h 26 v 186 c 0,37 -10,65 -29,84 -20,19 -48,29 -84,29 -37,0 -65,-10 -84,-29 -19,-19 -29,-48 -29,-85 z"
             class="fil2"
             id="path96" /><polygon
             style="fill:#373435;fill-rule:nonzero"
             points="3505,3213 3485,3213 3587,2876 3606,2876 "
             class="fil2"
             id="polygon98" /><polygon
             style="fill:#373435;fill-rule:nonzero"
             points="3645,2884 3645,3148 3808,3148 3808,3175 3619,3175 3619,2884 "
             class="fil2"
             id="polygon100" /><polygon
             style="fill:#373435;fill-rule:nonzero"
             points="3850,3175 3850,2884 3876,2884 3876,3175 "
             class="fil2"
             id="polygon102" /><polygon
             style="fill:#373435;fill-rule:nonzero"
             points="3964,2914 3964,3175 3939,3175 3939,2884 3972,2884 4153,3145 4153,2884 4178,2884 4178,3175 4144,3175 "
             class="fil2"
             id="polygon104" /><path
             style="fill:#373435;fill-rule:nonzero"
             inkscape:connector-curvature="0"
             d="m 4240,2884 h 26 v 179 c 0,31 7,55 21,70 14,14 36,22 66,22 29,0 51,-8 65,-23 14,-14 21,-38 21,-69 v -179 h 27 v 186 c 0,37 -10,65 -30,84 -19,19 -47,29 -83,29 -37,0 -65,-10 -84,-29 -20,-19 -29,-48 -29,-85 z"
             class="fil2"
             id="path106" /><polygon
             style="fill:#373435;fill-rule:nonzero"
             points="4743,3175 4709,3175 4621,3045 4533,3175 4499,3175 4605,3026 4507,2884 4540,2884 4623,3006 4706,2884 4738,2884 4637,3025 "
             class="fil2"
             id="polygon108" /><polygon
             style="fill:#373435;fill-rule:nonzero"
             points="5168,2909 5058,3175 5028,3175 4916,2909 4918,3175 4893,3175 4893,2884 4934,2884 5043,3148 5154,2884 5192,2884 5192,3175 5167,3175 "
             class="fil2"
             id="polygon110" /><path
             style="fill:#373435;fill-rule:nonzero"
             inkscape:connector-curvature="0"
             d="m 5301,3057 h 119 l -60,-149 z m -75,118 120,-291 h 30 l 118,291 h -26 l -37,-90 h -142 l -36,90 z"
             class="fil2"
             id="path112" /><polygon
             style="fill:#373435;fill-rule:nonzero"
             points="5553,2884 5553,3148 5716,3148 5716,3175 5527,3175 5527,2884 "
             class="fil2"
             id="polygon114" /><path
             style="fill:#373435;fill-rule:nonzero"
             inkscape:connector-curvature="0"
             d="m 5804,3057 h 119 l -60,-149 z m -75,118 120,-291 h 30 l 118,291 h -26 l -37,-90 h -142 l -36,90 z"
             class="fil2"
             id="path116" /><polygon
             style="fill:#373435;fill-rule:nonzero"
             points="6056,2914 6056,3175 6030,3175 6030,2884 6063,2884 6245,3145 6245,2884 6270,2884 6270,3175 6235,3175 "
             class="fil2"
             id="polygon118" /><path
             style="fill:#373435;fill-rule:nonzero"
             inkscape:connector-curvature="0"
             d="m 6552,3122 c -9,20 -22,35 -40,45 -17,11 -37,16 -61,16 -40,0 -72,-14 -96,-42 -24,-27 -36,-65 -36,-111 0,-48 12,-86 36,-113 24,-27 57,-41 100,-41 32,0 59,9 80,28 22,18 33,42 36,73 h -27 c -4,-24 -14,-42 -29,-54 -16,-12 -36,-18 -62,-18 -33,0 -60,11 -79,33 -19,22 -29,53 -29,92 0,38 9,68 29,91 19,22 45,34 77,34 28,0 51,-9 70,-27 19,-18 28,-39 28,-64 v -14 h -81 v -26 h 107 v 151 h -20 z"
             class="fil2"
             id="path120" /><g
             id="g136"><path
               style="fill:#373435"
               inkscape:connector-curvature="0"
               id="path122"
               d="m 4504,1021 v 1376 85 h 48 c 52,3 50,18 50,95 l 86,6 c 27,6 32,33 30,62 -2,29 -8,24 30,24 139,-2 116,2 116,125 h 34 V 1435 c 10,12 136,390 146,421 l 319,938 h 343 c 11,-20 100,-294 117,-338 44,-117 88,-265 131,-382 l 131,-382 c 10,-30 20,-55 30,-86 l 56,-164 c 3,-7 1,-3 4,-7 v 1359 h 397 V 1021 c -86,2 -172,-9 -255,-19 -40,-5 -85,-9 -122,5 -32,13 -39,31 -51,51 -36,59 -67,147 -97,212 l -250,569 c -27,63 -54,126 -82,189 -28,60 -59,129 -83,189 h -195 c -52,-125 -110,-255 -166,-380 -57,-126 -109,-253 -166,-378 -56,-126 -108,-254 -165,-379 -36,-80 -81,-91 -184,-78 -86,10 -163,18 -252,19 z"
               class="fil3" /><path
               style="fill:#373435"
               inkscape:connector-curvature="0"
               id="path124"
               d="m 737,2546 c -8,-8 -22,-24 -26,-34 23,-14 89,-7 42,-97 -56,-107 -212,-141 -272,-237 -49,-79 -33,-192 -1,-276 36,-93 67,-138 135,-200 -3,49 -62,155 -81,199 -25,58 -59,168 -7,221 12,-20 15,-69 20,-96 42,-198 187,-315 211,-583 93,2 106,121 242,75 40,-14 70,-38 112,-55 45,-17 74,-37 100,-65 l 7,11 c 1,1 3,8 3,10 2,9 4,15 7,24 63,216 115,264 196,442 13,27 24,53 34,82 11,33 15,58 23,93 l 32,3 c 16,-94 10,-151 -30,-226 -30,-56 -95,-112 -113,-157 82,19 118,88 156,151 58,95 55,125 56,250 31,29 132,57 132,128 l -44,6 c -7,-8 -10,-17 -20,-29 -24,-26 -56,-42 -93,-53 -122,-39 -113,17 -135,40 l -10,-10 c -7,-7 -2,-4 -10,-8 -20,17 -35,26 -49,50 -40,73 -27,166 -46,253 -21,99 -94,235 -25,313 56,63 149,65 226,37 47,-17 3,-17 84,-17 133,0 265,0 398,0 -3,-10 -10,-17 -16,-25 l -57,-76 c -11,-14 -69,-86 -70,-103 14,-3 36,-20 45,-30 57,-58 -21,-123 -42,-150 -47,-62 -25,-173 -115,-194 l 17,-149 c 0,-20 3,-20 1,-35 -6,-55 -2,-48 -22,-107 -15,-45 -43,-103 -67,-144 -36,-59 -64,-94 -108,-147 -68,-80 -166,-180 -183,-285 -4,-25 -3,-56 -8,-77 20,-14 54,-54 75,-74 4,-4 6,-5 9,-8 l 11,-10 c 48,-43 116,-119 152,-150 1,0 2,-1 2,-1 31,-26 102,-100 132,-130 l 211,-204 c 7,-7 13,-13 19,-21 h -489 c -28,0 -29,11 -64,45 -5,5 -8,8 -13,13 l -12,13 c 0,0 -1,1 -1,2 l -54,55 c -14,15 -41,45 -56,55 -27,-39 -78,-69 -125,-82 -50,-15 -126,-23 -188,-13 -116,16 -203,62 -242,175 -18,52 -23,117 -23,185 0,22 4,28 4,48 l -1,159 c -13,122 -29,144 -99,214 -14,14 -38,42 -53,52 V 671 H 187 v 1634 c -35,8 -73,30 -83,69 -11,44 3,82 2,142 -1,39 -22,103 -15,133 9,35 53,57 96,57 v 85 l 346,1 c 61,8 132,35 210,-26 10,-7 8,-5 15,-15 33,-45 12,5 27,-52 11,-41 -4,-81 -24,-115 -6,-10 -16,-32 -24,-38 z M 973,1197 c 11,6 68,25 82,23 4,-143 73,-98 74,-43 1,37 -17,48 -25,72 18,7 53,26 72,26 76,-74 48,-198 -29,-242 -78,-44 -182,11 -174,164 z m -155,65 8,-8 c -13,-36 -45,-70 -10,-108 36,4 19,43 44,73 l 60,-24 c 3,-80 -57,-198 -144,-143 -30,19 -48,63 -46,115 2,57 23,84 49,111 z"
               class="fil3" /><path
               style="fill:#1e87f7"
               inkscape:connector-curvature="0"
               id="path126"
               d="m 3526,1626 c -27,0 -56,7 -79,9 -26,3 -55,6 -77,11 -7,27 -11,54 -16,83 l -31,166 c -5,24 -16,59 -11,81 64,0 147,73 200,74 4,50 55,77 55,89 l -4,30 c -34,0 -78,7 -109,14 0,45 13,52 -37,54 -35,1 -24,7 -24,78 -10,1 -26,3 -39,5 -49,5 -35,1 -35,87 -64,0 -298,0 -333,17 0,15 0,29 0,44 0,55 -7,34 -58,38 -44,3 -38,7 -31,95 l -88,3 c -15,1 -12,3 -27,3 -6,27 -3,58 -3,85 -43,0 -110,-1 -146,7 -2,14 -4,8 -4,21 0,14 2,5 2,16 0,11 -11,52 8,52 h 1012 c 12,0 13,-14 17,-25 10,-29 21,-63 34,-91 -58,-14 -69,-102 -29,-142 52,-53 148,-18 148,50 0,47 -10,71 -51,92 2,17 15,42 20,58 6,17 20,42 21,58 h 1029 v -89 c -19,-4 -118,-7 -146,-7 -6,-26 -1,-58 -7,-85 -23,0 -31,-3 -54,-3 -20,0 -41,0 -61,0 2,-28 14,-66 0,-95 l -85,-3 c 0,-18 -4,-29 -3,-51 0,-41 3,-38 -72,-38 -21,0 -28,-3 -51,-3 l -105,-4 c -18,-1 -37,1 -54,0 -16,0 -36,-5 -51,-6 v -82 c -24,0 -56,-2 -75,-7 v -74 c -16,-1 -42,-6 -58,-7 0,-23 -3,-32 -3,-51 l -96,-13 c -18,-3 -23,-5 -23,-21 0,-14 38,-26 55,-54 23,-40 3,-35 50,-58 l 110,-54 c 60,-27 64,48 11,-216 -31,-153 7,-115 -118,-134 -55,-8 -54,-11 -54,-69 1,-63 -7,-117 -6,-180 0,-26 -4,-37 -4,-61 0,-45 -3,-78 -3,-122 0,-24 -4,-33 -4,-58 l -6,-241 c 0,-26 -4,-36 -4,-61 0,-58 -5,-123 -7,-180 0,-21 1,-44 0,-65 -1,-19 -2,-35 -3,-58 -1,-52 -16,-107 -40,-150 -5,-10 -18,-29 -25,-36 -10,-10 -28,-17 -44,-21 0,-17 -3,-17 -3,-34 -2,-54 -6,-108 -30,-157 -9,-19 -26,-28 -28,-50 -53,35 -72,129 -71,200 0,24 4,33 -11,44 -36,25 -27,7 -56,56 -38,64 -31,114 -40,177 -5,33 1,72 -4,105 l -18,532 c 0,22 -4,29 -4,51 0,18 1,37 0,55 l -4,103 c -6,34 1,73 -4,106 z"
               class="fil4" /><path
               style="fill:#373435"
               inkscape:connector-curvature="0"
               id="path128"
               d="m 1603,1082 v 557 l 84,124 c 9,17 17,29 25,46 64,127 78,184 62,317 -3,23 -8,46 -8,70 50,33 55,36 73,108 19,76 18,66 62,118 48,56 59,136 -16,175 10,19 22,33 35,50 7,9 11,16 17,24 l 56,74 c 6,9 10,14 17,24 10,14 12,22 21,22 h 574 c 0,-90 -13,-121 58,-122 h 72 c 15,0 16,2 19,-8 9,-25 -14,-61 21,-77 10,-4 74,-7 92,-7 0,-66 -7,-96 61,-95 40,0 36,3 31,-35 -1,-13 2,-15 3,-26 H 2004 V 688 c -12,3 -18,12 -26,21 -9,9 -16,16 -26,26 -8,8 -14,15 -24,23 l -276,270 c -9,10 -49,43 -49,54 z"
               class="fil3" /><path
               style="fill:#f7941e"
               inkscape:connector-curvature="0"
               id="path130"
               d="m 4464,1060 c 93,-2 172,-10 262,-23 108,-14 154,-1 192,90 59,142 114,286 173,429 58,142 113,286 172,429 59,142 120,289 173,431 h 204 c 24,-69 57,-146 86,-214 29,-72 57,-143 86,-215 l 260,-645 c 31,-74 64,-174 101,-241 12,-22 20,-43 54,-57 37,-16 84,-12 126,-6 87,12 177,23 266,22 144,-5 276,-27 381,-141 29,-32 52,-67 66,-113 42,-139 17,-320 -85,-418 -27,-27 -69,-57 -117,-57 0,1 2,0 2,1 l 15,7 c 25,10 31,13 53,31 67,55 95,148 103,247 2,28 -8,84 -13,104 -20,75 -63,128 -128,158 -13,7 -28,13 -40,18 -49,19 -124,30 -194,23 -239,-21 -475,-196 -638,27 l -24,35 -66,167 c -23,57 -44,111 -66,167 l -66,167 c -12,26 -21,55 -32,81 l -132,334 c -12,30 -22,54 -33,84 l -57,145 c -6,14 -2,11 -12,19 l -31,-81 c -11,-30 -22,-55 -33,-84 -10,-28 -21,-54 -33,-84 l -195,-496 c -8,-15 -11,-23 -17,-40 -28,-79 -116,-281 -138,-354 -6,-20 -20,-38 -32,-54 -193,-286 -524,56 -831,-55 -52,-19 -98,-44 -133,-90 -70,-94 -62,-276 -4,-372 7,-12 15,-22 23,-33 24,-31 46,-48 81,-63 l 20,-9 c -86,0 -156,88 -188,166 -36,86 -44,213 -12,313 42,133 173,207 294,235 71,17 97,11 157,15 z"
               class="fil5" /><path
               style="fill:#f7941e"
               inkscape:connector-curvature="0"
               id="path132"
               d="m 826,1258 -8,7 c -20,19 -43,35 -61,54 -51,52 10,66 76,119 20,17 42,35 73,45 71,23 129,-17 180,-43 26,-12 54,-25 78,-40 27,-16 32,-25 44,-45 9,-14 0,-1 16,-8 -3,-9 -40,-52 -77,-70 -35,-16 -71,-24 -105,-42 -141,-72 -177,9 -216,23 z m 576,936 c -59,29 -49,177 -63,251 -13,74 -68,188 -52,262 22,111 170,111 260,48 27,-18 67,-65 131,-110 169,-118 272,-77 151,-219 -34,-40 -30,-57 -46,-113 -43,-145 -152,-41 -189,-24 -37,16 -93,26 -132,5 -36,-19 -43,-60 -60,-100 z m -1016,-1 c -89,24 -34,82 -175,133 -36,13 -80,28 -81,71 -1,52 19,81 6,143 -33,157 -5,132 135,146 133,14 143,37 242,67 91,28 185,39 232,-32 51,-77 -37,-168 -71,-207 -71,-81 -69,-83 -128,-181 -31,-52 -81,-161 -160,-140 z"
               class="fil5" /><path
               style="fill:#f7941e"
               inkscape:connector-curvature="0"
               id="path134"
               d="m 2676,2388 h 282 v -271 c 0,-8 -3,-11 -11,-11 h -271 z m -317,-271 v 271 h 282 v -282 h -271 c -8,0 -11,3 -11,11 z m -317,271 h 282 v -271 c 0,-8 -3,-11 -11,-11 h -271 z m 0,-317 h 282 v -271 c 0,-8 -2,-11 -10,-11 h -272 z"
               class="fil5" /></g></g><g
           id="g148"><path
             style="fill:#373435;fill-rule:nonzero"
             inkscape:connector-curvature="0"
             id="path140"
             d="m 2487,3441 -48,-154 h 20 l 40,135 36,-135 h 23 l 39,135 38,-135 h 19 l -47,154 h -21 l -39,-137 -38,137 z m 222,0 -48,-154 h 19 l 40,135 37,-135 h 23 l 39,135 38,-135 h 19 l -47,154 h -21 l -39,-137 -39,137 z m 221,0 -48,-154 h 20 l 40,135 36,-135 h 24 l 38,135 38,-135 h 20 l -47,154 h -22 l -39,-137 -38,137 z m 184,0 v -26 h 21 v 26 z m 71,0 v -210 h 18 v 128 l 79,-72 h 27 l -63,57 73,97 h -24 l -63,-85 -29,26 v 59 z m 153,0 v -210 h 18 v 210 z m 58,-186 v -24 h 18 v 24 z m 0,186 v -154 h 18 v 154 z m 57,0 v -154 h 18 v 29 c 6,-11 14,-19 24,-24 10,-5 21,-8 33,-8 13,0 24,3 32,8 8,5 14,13 18,24 7,-11 15,-19 25,-24 10,-5 21,-8 33,-8 18,0 31,5 40,14 8,9 12,24 12,43 v 100 h -18 v -87 c 0,-19 -3,-33 -8,-40 -6,-8 -16,-12 -29,-12 -16,0 -29,5 -39,15 -10,9 -15,21 -15,36 v 88 h -16 v -87 c 0,-19 -3,-33 -9,-40 -6,-8 -15,-12 -29,-12 -16,0 -29,5 -39,15 -10,9 -15,21 -15,36 v 88 z m 285,0 v -26 h 21 v 26 z m 81,-77 c 0,19 5,34 15,46 10,11 23,17 40,17 16,0 30,-6 39,-17 10,-12 15,-27 15,-46 0,-19 -5,-34 -15,-46 -9,-11 -23,-17 -39,-17 -17,0 -30,6 -40,17 -10,12 -15,27 -15,46 z m -18,0 c 0,-25 6,-44 20,-60 13,-15 31,-22 53,-22 21,0 39,7 53,22 13,16 20,35 20,60 0,24 -7,44 -20,60 -14,15 -32,22 -53,22 -22,0 -40,-7 -53,-22 -14,-16 -20,-36 -20,-60 z m 194,77 h -18 v -154 h 18 v 26 c 4,-10 9,-18 16,-23 8,-6 16,-8 25,-8 3,0 6,0 9,1 3,0 6,1 9,3 v 19 c -3,-1 -6,-1 -9,-2 -2,0 -5,-1 -7,-1 -11,0 -20,4 -27,10 -7,7 -13,16 -16,29 z m 64,0 v -26 h 21 v 26 z m 72,-186 v -24 h 18 v 24 z m 0,186 v -154 h 18 v 154 z m 175,-78 c 0,-18 -5,-33 -15,-45 -9,-11 -23,-16 -39,-16 -16,0 -29,5 -39,17 -10,11 -15,26 -15,44 0,19 5,34 15,45 10,11 23,17 39,17 17,0 30,-6 40,-17 9,-11 14,-26 14,-45 z m 18,-132 v 210 h -18 v -27 c -6,10 -14,18 -23,23 -9,5 -19,7 -31,7 -22,0 -39,-7 -52,-22 -14,-15 -20,-35 -20,-59 0,-24 6,-43 20,-58 13,-15 30,-22 52,-22 11,0 21,2 30,7 9,5 17,13 24,23 v -82 z"
             class="fil2" /><g
             id="g146"><path
               style="fill:#373435"
               inkscape:connector-curvature="0"
               id="path142"
               d="m 4370,3335 c 0,30 21,23 53,23 24,0 47,0 70,0 46,0 90,-2 138,-2 369,0 744,-9 1112,-9 278,0 559,-7 836,-7 v -3 c -47,0 -94,0 -140,0 -49,0 -92,-2 -138,-2 -47,0 -94,0 -140,0 -49,0 -92,-2 -138,-2 -47,0 -94,0 -140,0 -49,0 -92,-2 -138,-2 -47,0 -93,0 -140,0 -49,0 -91,-3 -138,-3 -47,0 -93,0 -140,0 -49,0 -91,-2 -138,-2 -47,0 -93,0 -140,0 -48,0 -91,-2 -138,-2 -47,0 -93,0 -140,0 -48,0 -91,-2 -138,-2 h -210 c -7,0 -53,-10 -53,13 z"
               class="fil3" /><path
               style="fill:#373435"
               inkscape:connector-curvature="0"
               id="path144"
               d="m 185,3337 v 3 c 367,0 742,9 1111,9 299,0 603,7 904,7 24,0 42,2 68,2 23,0 47,0 70,0 33,0 55,7 55,-23 0,-10 -11,-15 -19,-16 -12,-1 -20,3 -34,3 h -210 c -47,0 -89,2 -138,2 -47,0 -93,0 -140,0 -47,0 -89,2 -138,2 -46,0 -93,0 -140,0 -47,0 -89,2 -138,2 -46,0 -93,0 -140,0 -46,0 -89,3 -138,3 -46,0 -93,0 -140,0 -46,0 -89,2 -138,2 -46,0 -93,0 -140,0 -46,0 -89,2 -137,2 -47,0 -94,0 -140,0 -47,0 -90,2 -138,2 -47,0 -94,0 -140,0 z"
               class="fil3" /></g></g></g></g></g></svg>